<?xml version="1.0" encoding="UTF-8"?>
<svg width="256" height="256" viewBox="0 0 256 256" xmlns="http://www.w3.org/2000/svg">
<defs><linearGradient id="g" x1="0%" y1="0%" x2="100%" y2="100%"><stop offset="0%" stop-color="#22c55e"/><stop offset="100%" stop-color="#15803d"/></linearGradient></defs>
<path d="M128 20 C185 20 220 60 220 115 C220 170 170 205 128 236 C86 205 36 170 36 115 C36 60 71 20 128 20Z" fill="url(#g)"/>
<circle cx="128" cy="105" r="62" fill="white"/>
<rect x="78" y="78" width="28" height="42" rx="8" fill="#16a34a"/>
<rect x="72" y="58" width="34" height="18" rx="8" fill="#16a34a"/>
<rect x="100" y="108" width="38" height="10" rx="5" fill="#16a34a"/>
<path d="M100 118 L145 118 L138 138 L104 138 Z" fill="#16a34a"/>
<path d="M150 70 C165 65 178 75 176 90 C185 100 180 112 170 118 C165 130 150 128 145 118 C136 108 140 85 150 70Z" fill="#9ca3af"/>
</svg>